<?xml version="1.0" encoding="utf-8"?>
<!-- Generator: Adobe Illustrator 22.1.0, SVG Export Plug-In . SVG Version: 6.00 Build 0)  -->
<svg version="1.2" baseProfile="tiny" id="g-hadden-small-img" xmlns="http://www.w3.org/2000/svg" xmlns:xlink="http://www.w3.org/1999/xlink"
	 x="0px" y="0px" viewBox="0 0 470.872 1066.907" xml:space="preserve">
<g>
	<rect y="0" fill="#FFFFFF" width="470.872" height="1066.907"/>
	<rect x="135.371" y="698.09" fill="#EDE2E5" width="317.783" height="21.378"/>
	<rect x="135.371" y="187.95" fill="#EDE2E5" width="317.783" height="21.378"/>
	<rect x="135.371" y="217.959" fill="#EDE2E5" width="317.783" height="21.378"/>
	<polygon fill="#EDE2E5" points="135.371,247.967 404.156,247.967 453.154,247.967 453.154,269.345 135.371,269.345 	"/>
	<rect x="135.371" y="277.975" fill="#EDE2E5" width="317.783" height="21.378"/>
	<rect x="135.371" y="307.983" fill="#EDE2E5" width="317.783" height="21.378"/>
	<rect x="135.371" y="337.991" fill="#EDE2E5" width="317.783" height="21.378"/>
	<rect x="135.371" y="368" fill="#EDE2E5" width="317.783" height="21.378"/>
	<rect x="135.371" y="398.008" fill="#EDE2E5" width="317.783" height="21.378"/>
	<rect x="135.371" y="428.016" fill="#EDE2E5" width="317.783" height="21.378"/>
	<rect x="135.371" y="458.024" fill="#EDE2E5" width="317.783" height="21.378"/>
	<rect x="135.371" y="488.032" fill="#EDE2E5" width="317.783" height="21.378"/>
	<rect x="135.371" y="518.04" fill="#EDE2E5" width="317.783" height="21.378"/>
	<rect x="135.371" y="548.049" fill="#EDE2E5" width="317.783" height="21.378"/>
	<rect x="135.371" y="578.057" fill="#EDE2E5" width="317.783" height="21.378"/>
	<rect x="135.371" y="608.066" fill="#EDE2E5" width="317.783" height="21.378"/>
	<rect x="135.371" y="638.074" fill="#EDE2E5" width="317.783" height="21.378"/>
	<rect x="135.371" y="668.082" fill="#EDE2E5" width="317.783" height="21.378"/>
	<rect x="357.714" y="187.95" fill="#9D3541" width="35.751" height="21.378"/>
	<rect x="397.7" y="217.959" fill="#9D3541" width="4.357" height="21.378"/>
	<rect x="366.353" y="247.967" fill="#9D3541" width="33.933" height="21.378"/>
	<rect x="373.384" y="277.975" fill="#9D3541" width="26.903" height="21.378"/>
	<rect x="336.886" y="307.983" fill="#9D3541" width="54.776" height="21.378"/>
	<rect x="292.24" y="337.991" fill="#9D3541" width="93.688" height="21.378"/>
	<rect x="384.683" y="368" fill="#9D3541" width="9.596" height="21.378"/>
	<rect x="343.062" y="398.008" fill="#9D3541" width="48.588" height="21.378"/>
	<rect x="400.287" y="428.016" fill="#9D3541" width="2.675" height="21.378"/>
	<rect x="302.649" y="458.024" fill="#9D3541" width="10.41" height="21.378"/>
	<rect x="254.469" y="488.032" fill="#9D3541" width="130.215" height="21.378"/>
	<rect x="292.289" y="518.04" fill="#9D3541" width="72.746" height="21.378"/>
	<rect x="365.373" y="548.049" fill="#9D3541" width="30.994" height="21.378"/>
	<rect x="252.026" y="608.066" fill="#9D3541" width="9.543" height="21.378"/>
	<rect x="199.093" y="638.074" fill="#9D3541" width="203.877" height="21.378"/>
	<rect x="307.61" y="668.082" fill="#9D3541" width="80.62" height="21.378"/>
	<rect x="135.371" y="728.099" fill="#EDE2E5" width="317.783" height="21.378"/>
	<rect x="135.371" y="758.107" fill="#EDE2E5" width="317.783" height="21.378"/>
	<rect x="135.371" y="788.115" fill="#EDE2E5" width="317.783" height="21.378"/>
	<rect x="135.371" y="818.123" fill="#EDE2E5" width="317.783" height="21.378"/>
	<rect x="135.371" y="848.131" fill="#EDE2E5" width="317.783" height="21.378"/>
	<rect x="135.371" y="878.14" fill="#EDE2E5" width="317.783" height="21.378"/>
	<rect x="344.12" y="698.091" fill="#9D3541" width="58.85" height="21.378"/>
	<rect x="323.313" y="758.107" fill="#9D3541" width="25.953" height="21.378"/>
	<rect x="355.242" y="788.115" fill="#9D3541" width="47.818" height="21.378"/>
	<rect x="323.168" y="848.131" fill="#9D3541" width="71.84" height="21.378"/>
	<rect x="292.505" y="878.14" fill="#9D3541" width="83.278" height="21.378"/>
	<rect x="292.505" y="818.123" fill="#9D3541" width="110.555" height="21.378"/>
	<rect x="135.371" y="157.942" fill="#EDE2E5" width="317.783" height="21.378"/>
	<rect x="398.522" y="157.942" fill="#9D3541" width="2.744" height="21.378"/>
	
		<rect style="opacity:0.7;" x="57.296" y="503.66" transform="matrix(2.413606e-11 1 -1 2.413606e-11 956.8141 100.6457)" fill="#FFFFFF" width="741.577" height="50.141"/>
	
		<line fill="none" stroke="#8C3541" stroke-width="1.6" stroke-miterlimit="10" x1="403.014" y1="157.942" x2="403.014" y2="899.518"/>
	
		<line fill="none" stroke="#000000" stroke-width="0.75" stroke-miterlimit="10" x1="144.624" y1="149.566" x2="144.63" y2="153.179"/>
	
		<line fill="none" stroke="#000000" stroke-width="0.75" stroke-miterlimit="10" x1="166.757" y1="149.566" x2="166.765" y2="153.179"/>
	
		<line fill="none" stroke="#000000" stroke-width="0.75" stroke-miterlimit="10" x1="187.68" y1="149.566" x2="187.688" y2="153.179"/>
	
		<line fill="none" stroke="#000000" stroke-width="0.75" stroke-miterlimit="10" x1="208.603" y1="149.566" x2="208.61" y2="153.179"/>
	
		<line fill="none" stroke="#000000" stroke-width="0.75" stroke-miterlimit="10" x1="229.525" y1="149.566" x2="229.533" y2="153.179"/>
	
		<line fill="none" stroke="#000000" stroke-width="0.75" stroke-miterlimit="10" x1="250.448" y1="149.566" x2="250.456" y2="153.179"/>
	
		<line fill="none" stroke="#000000" stroke-width="0.75" stroke-miterlimit="10" x1="271.371" y1="149.566" x2="271.378" y2="153.179"/>
	
		<line fill="none" stroke="#000000" stroke-width="0.75" stroke-miterlimit="10" x1="292.294" y1="149.566" x2="292.301" y2="153.179"/>
	
		<line fill="none" stroke="#000000" stroke-width="0.75" stroke-miterlimit="10" x1="313.216" y1="149.566" x2="313.224" y2="153.179"/>
	
		<line fill="none" stroke="#000000" stroke-width="0.75" stroke-miterlimit="10" x1="334.139" y1="149.566" x2="334.147" y2="153.179"/>
	
		<line fill="none" stroke="#000000" stroke-width="0.75" stroke-miterlimit="10" x1="355.062" y1="149.566" x2="355.069" y2="153.179"/>
	
		<line fill="none" stroke="#000000" stroke-width="0.75" stroke-miterlimit="10" x1="375.985" y1="149.566" x2="375.992" y2="153.179"/>
	
		<line fill="none" stroke="#000000" stroke-width="0.75" stroke-miterlimit="10" x1="396.907" y1="149.566" x2="396.915" y2="153.179"/>
	
		<line fill="none" stroke="#000000" stroke-width="0.75" stroke-miterlimit="10" x1="417.83" y1="149.566" x2="417.837" y2="153.179"/>
	
		<line fill="none" stroke="#000000" stroke-width="0.75" stroke-miterlimit="10" x1="438.753" y1="149.566" x2="438.76" y2="153.179"/>
	<rect x="324.631" y="578.057" fill="#9D3541" width="0.537" height="21.378"/>
	<rect x="208.886" y="548.049" fill="#9D3541" width="0.537" height="21.378"/>
	<g>
		<path fill="none" stroke="#000000" stroke-width="0.5" stroke-miterlimit="10" d="M221.785,810.037
			c0,26.322,38.903,47.741,87.687,48.746"/>
		<g>
			<polygon points="308.676,861.196 313.059,858.82 308.81,856.212 			"/>
		</g>
	</g>
	<g>
		
			<line fill="none" stroke="#000000" stroke-width="0.5" stroke-miterlimit="10" x1="334.764" y1="258.656" x2="349.926" y2="258.656"/>
		<g>
			<polygon points="349.197,261.149 353.514,258.656 349.197,256.163 			"/>
		</g>
	</g>
	
		<line fill="none" stroke="#8C3541" stroke-width="0.75" stroke-miterlimit="10" x1="413.875" y1="911.149" x2="413.875" y2="929.576"/>
	<g>
		<path fill="none" stroke="#000000" stroke-width="0.5" stroke-miterlimit="10" d="M178.46,545.434
			c0,6.753,4.978,12.405,11.685,13.911"/>
		<g>
			<polygon points="189.115,561.651 193.719,559.739 189.761,556.707 			"/>
		</g>
	</g>
	<g>
		<path fill="none" stroke="#8C3541" stroke-width="0.75" stroke-miterlimit="10" d="M430.646,127.074
			c0,33.668-9.21,61.78-19.946,68.767"/>
		<g>
			<polygon fill="#8C3541" points="410.354,191.751 405.582,197.509 412.955,198.764 			"/>
		</g>
	</g>
</g>
<style type="text/css">
#g-hadden-small-img rect, #g-hadden-small-img circle, #g-hadden-small-img path, #g-hadden-small-img line, #g-hadden-small-img polyline { vector-effect: non-scaling-stroke; }
</style>
</svg>

