<?xml version="1.0" encoding="utf-8"?>
<!-- Generator: Adobe Illustrator 22.1.0, SVG Export Plug-In . SVG Version: 6.00 Build 0)  -->
<svg version="1.2" baseProfile="tiny" id="g-hadden-medium-img" xmlns="http://www.w3.org/2000/svg" xmlns:xlink="http://www.w3.org/1999/xlink"
	 x="0px" y="0px" viewBox="0 0 655.791 857.706" xml:space="preserve">
<g>
	<rect fill="#FFFFFF" width="655.791" height="857.975"/>
	<rect x="135.371" y="553.546" fill="#EDE2E5" width="470.498" height="21.378"/>
	<rect x="135.371" y="128.406" fill="#EDE2E5" width="470.498" height="21.378"/>
	<rect x="135.371" y="153.415" fill="#EDE2E5" width="470.498" height="21.378"/>
	<polygon fill="#EDE2E5" points="135.371,178.423 533.324,178.423 605.869,178.423 605.869,199.801 135.371,199.801 	"/>
	<rect x="135.371" y="203.431" fill="#EDE2E5" width="470.498" height="21.378"/>
	<rect x="135.371" y="228.439" fill="#EDE2E5" width="470.498" height="21.378"/>
	<rect x="135.371" y="253.447" fill="#EDE2E5" width="470.498" height="21.378"/>
	<rect x="135.371" y="278.456" fill="#EDE2E5" width="470.498" height="21.378"/>
	<rect x="135.371" y="303.464" fill="#EDE2E5" width="470.498" height="21.378"/>
	<rect x="135.371" y="328.473" fill="#EDE2E5" width="470.498" height="21.378"/>
	<rect x="135.371" y="353.481" fill="#EDE2E5" width="470.498" height="21.378"/>
	<rect x="135.371" y="378.489" fill="#EDE2E5" width="470.498" height="21.378"/>
	<rect x="135.371" y="403.497" fill="#EDE2E5" width="470.498" height="21.378"/>
	<rect x="135.371" y="428.506" fill="#EDE2E5" width="470.498" height="21.378"/>
	<rect x="135.371" y="453.514" fill="#EDE2E5" width="470.498" height="21.378"/>
	<rect x="135.371" y="478.522" fill="#EDE2E5" width="470.498" height="21.378"/>
	<rect x="135.371" y="503.53" fill="#EDE2E5" width="470.498" height="21.378"/>
	<rect x="135.371" y="528.538" fill="#EDE2E5" width="470.498" height="21.378"/>
	<rect x="464.564" y="128.406" fill="#9D3541" width="52.931" height="21.378"/>
	<rect x="523.766" y="153.415" fill="#9D3541" width="6.45" height="21.378"/>
	<rect x="477.354" y="178.423" fill="#9D3541" width="50.24" height="21.378"/>
	<rect x="487.764" y="203.431" fill="#9D3541" width="39.831" height="21.378"/>
	<rect x="433.726" y="228.439" fill="#9D3541" width="81.1" height="21.378"/>
	<rect x="367.625" y="253.447" fill="#9D3541" width="138.711" height="21.378"/>
	<rect x="504.493" y="278.456" fill="#9D3541" width="14.207" height="21.378"/>
	<rect x="442.87" y="303.464" fill="#9D3541" width="71.938" height="21.378"/>
	<rect x="527.595" y="328.473" fill="#9D3541" width="3.961" height="21.378"/>
	<rect x="383.037" y="353.481" fill="#9D3541" width="15.412" height="21.378"/>
	<rect x="311.702" y="378.489" fill="#9D3541" width="192.791" height="21.378"/>
	<rect x="367.698" y="403.497" fill="#9D3541" width="107.704" height="21.378"/>
	<rect x="475.904" y="428.506" fill="#9D3541" width="45.888" height="21.378"/>
	<rect x="308.086" y="478.522" fill="#9D3541" width="14.13" height="21.378"/>
	<rect x="229.716" y="503.53" fill="#9D3541" width="301.852" height="21.378"/>
	<rect x="390.382" y="528.538" fill="#9D3541" width="119.363" height="21.378"/>
	<rect x="135.371" y="578.555" fill="#EDE2E5" width="470.498" height="21.378"/>
	<rect x="135.371" y="603.563" fill="#EDE2E5" width="470.498" height="21.378"/>
	<rect x="135.371" y="628.571" fill="#EDE2E5" width="470.498" height="21.378"/>
	<rect x="135.371" y="653.58" fill="#EDE2E5" width="470.498" height="21.378"/>
	<rect x="135.371" y="678.588" fill="#EDE2E5" width="470.498" height="21.378"/>
	<rect x="135.371" y="703.597" fill="#EDE2E5" width="470.498" height="21.378"/>
	<rect x="444.437" y="553.547" fill="#9D3541" width="87.131" height="21.378"/>
	<rect x="413.63" y="603.563" fill="#9D3541" width="38.425" height="21.378"/>
	<rect x="460.904" y="628.571" fill="#9D3541" width="70.798" height="21.378"/>
	<rect x="413.416" y="678.588" fill="#9D3541" width="106.363" height="21.378"/>
	<rect x="368.018" y="703.597" fill="#9D3541" width="123.298" height="21.378"/>
	<rect x="368.018" y="653.58" fill="#9D3541" width="163.684" height="21.378"/>
	<rect x="135.371" y="103.398" fill="#EDE2E5" width="470.498" height="21.378"/>
	<rect x="524.982" y="103.398" fill="#9D3541" width="4.063" height="21.378"/>
	
		<rect style="opacity:0.7;" x="257.963" y="377.068" transform="matrix(4.264926e-11 1 -1 4.264926e-11 982.9377 -154.5645)" fill="#FFFFFF" width="621.577" height="74.237"/>
	
		<line fill="none" stroke="#8C3541" stroke-width="1.6" stroke-miterlimit="10" x1="531.632" y1="103.398" x2="531.632" y2="724.975"/>
	
		<line fill="none" stroke="#000000" stroke-width="0.75" stroke-miterlimit="10" x1="150.863" y1="95.022" x2="150.874" y2="98.636"/>
	
		<line fill="none" stroke="#000000" stroke-width="0.75" stroke-miterlimit="10" x1="181.84" y1="95.022" x2="181.851" y2="98.636"/>
	
		<line fill="none" stroke="#000000" stroke-width="0.75" stroke-miterlimit="10" x1="212.818" y1="95.022" x2="212.829" y2="98.636"/>
	
		<line fill="none" stroke="#000000" stroke-width="0.75" stroke-miterlimit="10" x1="243.795" y1="95.022" x2="243.806" y2="98.636"/>
	
		<line fill="none" stroke="#000000" stroke-width="0.75" stroke-miterlimit="10" x1="274.772" y1="95.022" x2="274.784" y2="98.636"/>
	
		<line fill="none" stroke="#000000" stroke-width="0.75" stroke-miterlimit="10" x1="305.75" y1="95.022" x2="305.761" y2="98.636"/>
	
		<line fill="none" stroke="#000000" stroke-width="0.75" stroke-miterlimit="10" x1="336.727" y1="95.022" x2="336.738" y2="98.636"/>
	
		<line fill="none" stroke="#000000" stroke-width="0.75" stroke-miterlimit="10" x1="367.705" y1="95.022" x2="367.716" y2="98.636"/>
	
		<line fill="none" stroke="#000000" stroke-width="0.75" stroke-miterlimit="10" x1="398.682" y1="95.022" x2="398.693" y2="98.636"/>
	
		<line fill="none" stroke="#000000" stroke-width="0.75" stroke-miterlimit="10" x1="429.659" y1="95.022" x2="429.671" y2="98.636"/>
	
		<line fill="none" stroke="#000000" stroke-width="0.75" stroke-miterlimit="10" x1="460.637" y1="95.022" x2="460.648" y2="98.636"/>
	
		<line fill="none" stroke="#000000" stroke-width="0.75" stroke-miterlimit="10" x1="491.614" y1="95.022" x2="491.625" y2="98.636"/>
	
		<line fill="none" stroke="#000000" stroke-width="0.75" stroke-miterlimit="10" x1="522.592" y1="95.022" x2="522.603" y2="98.636"/>
	
		<line fill="none" stroke="#000000" stroke-width="0.75" stroke-miterlimit="10" x1="553.569" y1="95.022" x2="553.58" y2="98.636"/>
	
		<line fill="none" stroke="#000000" stroke-width="0.75" stroke-miterlimit="10" x1="584.546" y1="95.022" x2="584.557" y2="98.636"/>
	<rect x="415.583" y="453.514" fill="#9D3541" width="0.795" height="21.378"/>
	<rect x="244.214" y="428.505" fill="#9D3541" width="0.795" height="21.378"/>
	<g>
		<path fill="none" stroke="#000000" stroke-width="0.5" stroke-miterlimit="10" d="M365.962,689.277c0,0,20.366,0,31.951,0"/>
		<g>
			<polygon points="397.183,691.77 401.501,689.277 397.183,686.784 			"/>
		</g>
	</g>
	<g>
		
			<line fill="none" stroke="#000000" stroke-width="0.5" stroke-miterlimit="10" x1="429.996" y1="189.112" x2="459.158" y2="189.112"/>
		<g>
			<polygon points="458.428,191.605 462.746,189.112 458.428,186.619 			"/>
		</g>
	</g>
	
		<line fill="none" stroke="#8C3541" stroke-width="0.75" stroke-miterlimit="10" x1="593.644" y1="736.28" x2="593.644" y2="754.707"/>
	<g>
		<path fill="none" stroke="#000000" stroke-width="0.5" stroke-miterlimit="10" d="M216.817,420.598
			c0,9.111,6.843,16.682,15.894,18.284"/>
		<g>
			<polygon points="231.741,441.234 236.29,439.195 232.25,436.274 			"/>
		</g>
	</g>
	<g>
		<path fill="none" stroke="#932537" stroke-width="0.75" stroke-miterlimit="10" d="M603.143,184.104
			c0,23.95-25.318,43.529-63.937,45.196"/>
		<g>
			<polygon fill="#932537" points="540.184,225.479 533.825,229.415 540.413,232.955 			"/>
		</g>
	</g>
</g>
<style type="text/css">
#g-hadden-medium-img rect, #g-hadden-medium-img circle, #g-hadden-medium-img path, #g-hadden-medium-img line, #g-hadden-medium-img polyline { vector-effect: non-scaling-stroke; }
</style>
</svg>

