<?xml version="1.0" encoding="utf-8"?>
<!-- Generator: Adobe Illustrator 22.1.0, SVG Export Plug-In . SVG Version: 6.00 Build 0)  -->
<svg version="1.2" baseProfile="tiny" id="g-hadden-xsmall-img" xmlns="http://www.w3.org/2000/svg" xmlns:xlink="http://www.w3.org/1999/xlink"
	 x="0px" y="0px" viewBox="0 0 470.872 1077.263" xml:space="preserve">
<g>
	<rect fill="#FFFFFF" width="470.872" height="1080.736"/>
	<rect x="135.371" y="718.446" fill="#EDE2E5" width="317.783" height="21.378"/>
	<rect x="135.371" y="208.306" fill="#EDE2E5" width="317.783" height="21.378"/>
	<rect x="135.371" y="238.315" fill="#EDE2E5" width="317.783" height="21.378"/>
	<polygon fill="#EDE2E5" points="135.371,268.322 404.156,268.322 453.154,268.322 453.154,289.701 135.371,289.701 	"/>
	<rect x="135.371" y="298.331" fill="#EDE2E5" width="317.783" height="21.378"/>
	<rect x="135.371" y="328.339" fill="#EDE2E5" width="317.783" height="21.378"/>
	<rect x="135.371" y="358.347" fill="#EDE2E5" width="317.783" height="21.378"/>
	<rect x="135.371" y="388.356" fill="#EDE2E5" width="317.783" height="21.378"/>
	<rect x="135.371" y="418.364" fill="#EDE2E5" width="317.783" height="21.378"/>
	<rect x="135.371" y="448.372" fill="#EDE2E5" width="317.783" height="21.378"/>
	<rect x="135.371" y="478.38" fill="#EDE2E5" width="317.783" height="21.378"/>
	<rect x="135.371" y="508.388" fill="#EDE2E5" width="317.783" height="21.378"/>
	<rect x="135.371" y="538.396" fill="#EDE2E5" width="317.783" height="21.378"/>
	<rect x="135.371" y="568.405" fill="#EDE2E5" width="317.783" height="21.378"/>
	<rect x="135.371" y="598.413" fill="#EDE2E5" width="317.783" height="21.378"/>
	<rect x="135.371" y="628.422" fill="#EDE2E5" width="317.783" height="21.378"/>
	<rect x="135.371" y="658.43" fill="#EDE2E5" width="317.783" height="21.378"/>
	<rect x="135.371" y="688.438" fill="#EDE2E5" width="317.783" height="21.378"/>
	<rect x="357.714" y="208.306" fill="#9D3541" width="35.751" height="21.378"/>
	<rect x="397.7" y="238.315" fill="#9D3541" width="4.357" height="21.378"/>
	<rect x="366.353" y="268.323" fill="#9D3541" width="33.933" height="21.378"/>
	<rect x="373.384" y="298.331" fill="#9D3541" width="26.903" height="21.378"/>
	<rect x="336.886" y="328.339" fill="#9D3541" width="54.776" height="21.378"/>
	<rect x="292.24" y="358.347" fill="#9D3541" width="93.688" height="21.378"/>
	<rect x="384.683" y="388.356" fill="#9D3541" width="9.596" height="21.378"/>
	<rect x="343.062" y="418.364" fill="#9D3541" width="48.588" height="21.378"/>
	<rect x="400.287" y="448.372" fill="#9D3541" width="2.675" height="21.378"/>
	<rect x="302.649" y="478.38" fill="#9D3541" width="10.41" height="21.378"/>
	<rect x="254.469" y="508.388" fill="#9D3541" width="130.215" height="21.378"/>
	<rect x="292.289" y="538.396" fill="#9D3541" width="72.746" height="21.378"/>
	<rect x="365.373" y="568.405" fill="#9D3541" width="30.994" height="21.378"/>
	<rect x="252.026" y="628.422" fill="#9D3541" width="9.543" height="21.378"/>
	<rect x="199.093" y="658.43" fill="#9D3541" width="203.877" height="21.378"/>
	<rect x="307.61" y="688.438" fill="#9D3541" width="80.62" height="21.378"/>
	<rect x="135.371" y="748.455" fill="#EDE2E5" width="317.783" height="21.378"/>
	<rect x="135.371" y="778.463" fill="#EDE2E5" width="317.783" height="21.378"/>
	<rect x="135.371" y="808.471" fill="#EDE2E5" width="317.783" height="21.378"/>
	<rect x="135.371" y="838.479" fill="#EDE2E5" width="317.783" height="21.378"/>
	<rect x="135.371" y="868.487" fill="#EDE2E5" width="317.783" height="21.378"/>
	<rect x="135.371" y="898.496" fill="#EDE2E5" width="317.783" height="21.378"/>
	<rect x="344.12" y="718.447" fill="#9D3541" width="58.85" height="21.378"/>
	<rect x="323.313" y="778.463" fill="#9D3541" width="25.953" height="21.378"/>
	<rect x="355.242" y="808.471" fill="#9D3541" width="47.818" height="21.378"/>
	<rect x="323.168" y="868.487" fill="#9D3541" width="71.84" height="21.378"/>
	<rect x="292.505" y="898.496" fill="#9D3541" width="83.278" height="21.378"/>
	<rect x="292.505" y="838.479" fill="#9D3541" width="110.555" height="21.378"/>
	<rect x="135.371" y="178.298" fill="#EDE2E5" width="317.783" height="21.378"/>
	<rect x="398.522" y="178.298" fill="#9D3541" width="2.744" height="21.378"/>
	
		<rect style="opacity:0.7;" x="57.296" y="524.016" transform="matrix(2.415116e-11 1 -1 2.415116e-11 977.1701 121.0017)" fill="#FFFFFF" width="741.577" height="50.141"/>
	
		<line fill="none" stroke="#8C3541" stroke-width="1.6" stroke-miterlimit="10" x1="403.014" y1="178.298" x2="403.014" y2="919.874"/>
	
		<line fill="none" stroke="#000000" stroke-width="0.75" stroke-miterlimit="10" x1="144.624" y1="169.922" x2="144.63" y2="173.535"/>
	
		<line fill="none" stroke="#000000" stroke-width="0.75" stroke-miterlimit="10" x1="166.757" y1="169.922" x2="166.765" y2="173.535"/>
	
		<line fill="none" stroke="#000000" stroke-width="0.75" stroke-miterlimit="10" x1="187.68" y1="169.922" x2="187.688" y2="173.535"/>
	
		<line fill="none" stroke="#000000" stroke-width="0.75" stroke-miterlimit="10" x1="208.603" y1="169.922" x2="208.61" y2="173.535"/>
	
		<line fill="none" stroke="#000000" stroke-width="0.75" stroke-miterlimit="10" x1="229.525" y1="169.922" x2="229.533" y2="173.535"/>
	
		<line fill="none" stroke="#000000" stroke-width="0.75" stroke-miterlimit="10" x1="250.448" y1="169.922" x2="250.456" y2="173.535"/>
	
		<line fill="none" stroke="#000000" stroke-width="0.75" stroke-miterlimit="10" x1="271.371" y1="169.922" x2="271.378" y2="173.535"/>
	
		<line fill="none" stroke="#000000" stroke-width="0.75" stroke-miterlimit="10" x1="292.294" y1="169.922" x2="292.301" y2="173.535"/>
	
		<line fill="none" stroke="#000000" stroke-width="0.75" stroke-miterlimit="10" x1="313.216" y1="169.922" x2="313.224" y2="173.535"/>
	
		<line fill="none" stroke="#000000" stroke-width="0.75" stroke-miterlimit="10" x1="334.139" y1="169.922" x2="334.147" y2="173.535"/>
	
		<line fill="none" stroke="#000000" stroke-width="0.75" stroke-miterlimit="10" x1="355.062" y1="169.922" x2="355.069" y2="173.535"/>
	
		<line fill="none" stroke="#000000" stroke-width="0.75" stroke-miterlimit="10" x1="375.985" y1="169.922" x2="375.992" y2="173.535"/>
	
		<line fill="none" stroke="#000000" stroke-width="0.75" stroke-miterlimit="10" x1="396.907" y1="169.922" x2="396.915" y2="173.535"/>
	
		<line fill="none" stroke="#000000" stroke-width="0.75" stroke-miterlimit="10" x1="417.83" y1="169.922" x2="417.837" y2="173.535"/>
	
		<line fill="none" stroke="#000000" stroke-width="0.75" stroke-miterlimit="10" x1="438.753" y1="169.922" x2="438.76" y2="173.535"/>
	<rect x="324.631" y="598.413" fill="#9D3541" width="0.537" height="21.378"/>
	<rect x="208.886" y="568.405" fill="#9D3541" width="0.537" height="21.378"/>
	<g>
		<path fill="none" stroke="#000000" stroke-width="0.5" stroke-miterlimit="10" d="M221.785,830.393
			c0,26.322,38.903,47.741,87.687,48.746"/>
		<g>
			<polygon points="308.676,881.552 313.059,879.176 308.811,876.568 			"/>
		</g>
	</g>
	<g>
		
			<line fill="none" stroke="#000000" stroke-width="0.5" stroke-miterlimit="10" x1="340.764" y1="279.012" x2="355.926" y2="279.012"/>
		<g>
			<polygon points="355.197,281.505 359.514,279.012 355.197,276.519 			"/>
		</g>
	</g>
	
		<line fill="none" stroke="#8C3541" stroke-width="0.75" stroke-miterlimit="10" x1="413.875" y1="931.505" x2="413.875" y2="949.932"/>
	<g>
		<path fill="none" stroke="#000000" stroke-width="0.5" stroke-miterlimit="10" d="M183.46,563.79
			c0,6.753,4.978,12.405,11.685,13.911"/>
		<g>
			<polygon points="194.114,580.007 198.719,578.095 194.761,575.063 			"/>
		</g>
	</g>
	<g>
		<path fill="none" stroke="#8C3541" stroke-width="0.75" stroke-miterlimit="10" d="M430.646,147.43
			c0,33.624-8.44,61.707-18.955,68.739"/>
		<g>
			<polygon fill="#8C3541" points="411.319,212.078 406.582,217.865 413.962,219.075 			"/>
		</g>
	</g>
</g>
<style type="text/css">
#g-hadden-xsmall-img rect, #g-hadden-xsmall-img circle, #g-hadden-xsmall-img path, #g-hadden-xsmall-img line, #g-hadden-xsmall-img polyline { vector-effect: non-scaling-stroke; }
</style>
</svg>

