<?xml version="1.0" encoding="utf-8"?>
<!-- Generator: Adobe Illustrator 22.1.0, SVG Export Plug-In . SVG Version: 6.00 Build 0)  -->
<svg version="1.2" baseProfile="tiny" id="g-hadden-large-img" xmlns="http://www.w3.org/2000/svg" xmlns:xlink="http://www.w3.org/1999/xlink"
	 x="0px" y="0px" viewBox="0 0 870.772 857.706" xml:space="preserve">
<g>
	<rect fill="#FFFFFF" width="870.772" height="857.706"/>
	<rect x="135.372" y="545.546" fill="#EDE2E5" width="643.634" height="21.378"/>
	<rect x="135.372" y="120.406" fill="#EDE2E5" width="643.634" height="21.378"/>
	<rect x="135.372" y="145.415" fill="#EDE2E5" width="643.634" height="21.378"/>
	<polygon fill="#EDE2E5" points="135.371,170.423 679.764,170.423 779.005,170.423 779.005,191.801 135.371,191.801 	"/>
	<rect x="135.372" y="195.431" fill="#EDE2E5" width="643.634" height="21.378"/>
	<rect x="135.372" y="220.439" fill="#EDE2E5" width="643.634" height="21.378"/>
	<rect x="135.372" y="245.447" fill="#EDE2E5" width="643.634" height="21.378"/>
	<rect x="135.372" y="270.456" fill="#EDE2E5" width="643.634" height="21.378"/>
	<rect x="135.372" y="295.464" fill="#EDE2E5" width="643.634" height="21.378"/>
	<rect x="135.372" y="320.473" fill="#EDE2E5" width="643.634" height="21.378"/>
	<rect x="135.372" y="345.481" fill="#EDE2E5" width="643.634" height="21.378"/>
	<rect x="135.372" y="370.489" fill="#EDE2E5" width="643.634" height="21.378"/>
	<rect x="135.372" y="395.497" fill="#EDE2E5" width="643.634" height="21.378"/>
	<rect x="135.372" y="420.506" fill="#EDE2E5" width="643.634" height="21.378"/>
	<rect x="135.372" y="445.514" fill="#EDE2E5" width="643.634" height="21.378"/>
	<rect x="135.372" y="470.522" fill="#EDE2E5" width="643.634" height="21.378"/>
	<rect x="135.372" y="495.53" fill="#EDE2E5" width="643.634" height="21.378"/>
	<rect x="135.372" y="520.538" fill="#EDE2E5" width="643.634" height="21.378"/>
	<rect x="585.701" y="120.406" fill="#9D3541" width="72.409" height="21.378"/>
	<rect x="666.689" y="145.415" fill="#9D3541" width="8.824" height="21.378"/>
	<rect x="603.198" y="170.423" fill="#9D3541" width="68.728" height="21.378"/>
	<rect x="617.439" y="195.431" fill="#9D3541" width="54.488" height="21.378"/>
	<rect x="543.516" y="220.439" fill="#9D3541" width="110.943" height="21.378"/>
	<rect x="453.09" y="245.447" fill="#9D3541" width="189.754" height="21.378"/>
	<rect x="640.324" y="270.456" fill="#9D3541" width="19.435" height="21.378"/>
	<rect x="556.025" y="295.464" fill="#9D3541" width="98.41" height="21.378"/>
	<rect x="671.927" y="320.473" fill="#9D3541" width="5.418" height="21.378"/>
	<rect x="474.174" y="345.481" fill="#9D3541" width="21.084" height="21.378"/>
	<rect x="376.589" y="370.489" fill="#9D3541" width="263.735" height="21.378"/>
	<rect x="453.191" y="395.497" fill="#9D3541" width="147.338" height="21.378"/>
	<rect x="601.214" y="420.506" fill="#9D3541" width="62.774" height="21.378"/>
	<rect x="371.642" y="470.522" fill="#9D3541" width="19.329" height="21.378"/>
	<rect x="264.433" y="495.53" fill="#9D3541" width="412.929" height="21.378"/>
	<rect x="484.222" y="520.538" fill="#9D3541" width="163.287" height="21.378"/>
	<rect x="135.372" y="570.555" fill="#EDE2E5" width="643.634" height="21.378"/>
	<rect x="135.372" y="595.563" fill="#EDE2E5" width="643.634" height="21.378"/>
	<rect x="135.372" y="620.571" fill="#EDE2E5" width="643.634" height="21.378"/>
	<rect x="135.372" y="645.58" fill="#EDE2E5" width="643.634" height="21.378"/>
	<rect x="135.372" y="670.588" fill="#EDE2E5" width="643.634" height="21.378"/>
	<rect x="135.372" y="695.597" fill="#EDE2E5" width="643.634" height="21.378"/>
	<rect x="558.168" y="545.547" fill="#9D3541" width="119.194" height="21.378"/>
	<rect x="516.025" y="595.563" fill="#9D3541" width="52.565" height="21.378"/>
	<rect x="580.695" y="620.571" fill="#9D3541" width="96.85" height="21.378"/>
	<rect x="515.732" y="670.588" fill="#9D3541" width="145.503" height="21.378"/>
	<rect x="453.628" y="695.597" fill="#9D3541" width="168.67" height="21.378"/>
	<rect x="453.628" y="645.58" fill="#9D3541" width="223.917" height="21.378"/>
	<rect x="135.372" y="95.398" fill="#EDE2E5" width="643.634" height="21.378"/>
	<rect x="668.352" y="95.398" fill="#9D3541" width="5.558" height="21.378"/>
	
		<rect style="opacity:0.7;" x="417.44" y="355.409" transform="matrix(5.835225e-11 1 -1 5.835225e-11 1134.4148 -322.0416)" fill="#FFFFFF" width="621.577" height="101.555"/>
	<line fill="none" stroke="#8C3541" stroke-width="1.6" stroke-miterlimit="10" x1="677.45" y1="95.398" x2="677.45" y2="716.975"/>
	
		<line fill="none" stroke="#000000" stroke-width="0.75" stroke-miterlimit="10" x1="156.564" y1="87.022" x2="156.579" y2="90.636"/>
	
		<line fill="none" stroke="#000000" stroke-width="0.75" stroke-miterlimit="10" x1="198.94" y1="87.022" x2="198.955" y2="90.636"/>
	
		<line fill="none" stroke="#000000" stroke-width="0.75" stroke-miterlimit="10" x1="241.317" y1="87.022" x2="241.332" y2="90.636"/>
	
		<line fill="none" stroke="#000000" stroke-width="0.75" stroke-miterlimit="10" x1="283.693" y1="87.022" x2="283.709" y2="90.636"/>
	
		<line fill="none" stroke="#000000" stroke-width="0.75" stroke-miterlimit="10" x1="326.07" y1="87.022" x2="326.085" y2="90.636"/>
	
		<line fill="none" stroke="#000000" stroke-width="0.75" stroke-miterlimit="10" x1="368.447" y1="87.022" x2="368.462" y2="90.636"/>
	
		<line fill="none" stroke="#000000" stroke-width="0.75" stroke-miterlimit="10" x1="410.823" y1="87.022" x2="410.838" y2="90.636"/>
	<line fill="none" stroke="#000000" stroke-width="0.75" stroke-miterlimit="10" x1="453.2" y1="87.022" x2="453.215" y2="90.636"/>
	
		<line fill="none" stroke="#000000" stroke-width="0.75" stroke-miterlimit="10" x1="495.576" y1="87.022" x2="495.591" y2="90.636"/>
	
		<line fill="none" stroke="#000000" stroke-width="0.75" stroke-miterlimit="10" x1="537.953" y1="87.022" x2="537.968" y2="90.636"/>
	
		<line fill="none" stroke="#000000" stroke-width="0.75" stroke-miterlimit="10" x1="580.33" y1="87.022" x2="580.345" y2="90.636"/>
	
		<line fill="none" stroke="#000000" stroke-width="0.75" stroke-miterlimit="10" x1="622.706" y1="87.022" x2="622.721" y2="90.636"/>
	
		<line fill="none" stroke="#000000" stroke-width="0.75" stroke-miterlimit="10" x1="665.083" y1="87.022" x2="665.098" y2="90.636"/>
	
		<line fill="none" stroke="#000000" stroke-width="0.75" stroke-miterlimit="10" x1="707.459" y1="87.022" x2="707.474" y2="90.636"/>
	
		<line fill="none" stroke="#000000" stroke-width="0.75" stroke-miterlimit="10" x1="749.836" y1="87.022" x2="749.851" y2="90.636"/>
	<rect x="518.696" y="445.514" fill="#9D3541" width="1.088" height="21.378"/>
	<rect x="284.267" y="420.505" fill="#9D3541" width="1.088" height="21.378"/>
	<g>
		<path fill="none" stroke="#000000" stroke-width="0.5" stroke-miterlimit="10" d="M252.661,431.195c0,0,9.634,0,18.953,0"/>
		<g>
			<polygon points="270.882,433.688 275.2,431.195 270.882,428.702 			"/>
		</g>
	</g>
	<g>
		<path fill="none" stroke="#000000" stroke-width="0.5" stroke-miterlimit="10" d="M439.357,681.277c0,0,47.053,0,62.952,0"/>
		<g>
			<polygon points="501.578,683.77 505.895,681.277 501.578,678.784 			"/>
		</g>
	</g>
	<g>
		
			<line fill="none" stroke="#000000" stroke-width="0.5" stroke-miterlimit="10" x1="561.996" y1="181.112" x2="589.158" y2="181.112"/>
		<g>
			<polygon points="588.428,183.605 592.746,181.112 588.428,178.619 			"/>
		</g>
	</g>
	
		<line fill="none" stroke="#8C3541" stroke-width="0.75" stroke-miterlimit="10" x1="770.372" y1="728.28" x2="770.372" y2="746.707"/>
	<g>
		<path fill="none" stroke="#932537" stroke-width="0.75" stroke-miterlimit="10" d="M748.768,156.104
			c0,23.95-25.318,43.529-63.937,45.196"/>
		<g>
			<polygon fill="#932537" points="685.81,197.479 679.45,201.415 686.038,204.955 			"/>
		</g>
	</g>
</g>
<style type="text/css">
#g-hadden-large-img rect, #g-hadden-large-img circle, #g-hadden-large-img path, #g-hadden-large-img line, #g-hadden-large-img polyline { vector-effect: non-scaling-stroke; }
</style>
</svg>

